<mxfile host="app.diagrams.net" agent="Mozilla/5.0 (X11; Linux x86_64) AppleWebKit/537.36 (KHTML, like Gecko) Chrome/128.0.0.0 Safari/537.36" version="24.7.14">
  <diagram name="PÃ¡gina-1" id="G9xeTIO4-0U8LyAHknkH">
    <mxGraphModel dx="1307" dy="1797" grid="1" gridSize="10" guides="1" tooltips="1" connect="1" arrows="1" fold="1" page="1" pageScale="1" pageWidth="827" pageHeight="1169" math="0" shadow="0">
      <root>
        <mxCell id="0" />
        <mxCell id="1" parent="0" />
        <mxCell id="5Ww77VYzwX19S0LwLlC--1" value="&lt;span style=&quot;font-size: 12px;&quot;&gt;E1 Parking&lt;/span&gt;" style="swimlane;childLayout=stackLayout;horizontal=1;startSize=50;horizontalStack=0;rounded=1;fontSize=14;fontStyle=0;strokeWidth=2;resizeParent=0;resizeLast=1;shadow=0;dashed=0;align=center;arcSize=4;whiteSpace=wrap;html=1;" vertex="1" parent="1">
          <mxGeometry x="-600" y="-560" width="310" height="180" as="geometry" />
        </mxCell>
        <mxCell id="5Ww77VYzwX19S0LwLlC--2" value="&lt;div style=&quot;&quot;&gt;id_parking:&amp;nbsp;&lt;span class=&quot;hljs-type&quot;&gt;INT&lt;/span&gt; &lt;span class=&quot;hljs-keyword&quot;&gt;PRIMARY&lt;/span&gt; KEY AUTO_INCREMENT,&lt;/div&gt;&lt;div style=&quot;&quot;&gt;location &lt;span class=&quot;hljs-type&quot;&gt;VARCHAR&lt;/span&gt;(&lt;span class=&quot;hljs-number&quot;&gt;100&lt;/span&gt;) &lt;span class=&quot;hljs-keyword&quot;&gt;NOT&lt;/span&gt; &lt;span class=&quot;hljs-keyword&quot;&gt;NULL&lt;/span&gt;,&lt;/div&gt;&lt;div style=&quot;&quot;&gt;    duration &lt;span class=&quot;hljs-type&quot;&gt;TIME&lt;/span&gt;,&lt;/div&gt;&lt;div style=&quot;&quot;&gt;price &lt;span class=&quot;hljs-type&quot;&gt;INT&lt;/span&gt; &lt;span class=&quot;hljs-keyword&quot;&gt;CHECK&lt;/span&gt; (price &lt;span class=&quot;hljs-operator&quot;&gt;&amp;gt;&lt;/span&gt; &lt;span class=&quot;hljs-number&quot;&gt;0&lt;/span&gt;),&lt;/div&gt;&lt;div style=&quot;&quot;&gt;vehicle_type &lt;span class=&quot;hljs-type&quot;&gt;VARCHAR&lt;/span&gt;(&lt;span class=&quot;hljs-number&quot;&gt;50&lt;/span&gt;) &lt;span class=&quot;hljs-keyword&quot;&gt;NOT&lt;/span&gt; &lt;span class=&quot;hljs-keyword&quot;&gt;NULL&lt;/span&gt;&lt;br&gt;&lt;/div&gt;" style="align=left;strokeColor=none;fillColor=none;spacingLeft=4;fontSize=12;verticalAlign=top;resizable=0;rotatable=0;part=1;html=1;" vertex="1" parent="5Ww77VYzwX19S0LwLlC--1">
          <mxGeometry y="50" width="310" height="130" as="geometry" />
        </mxCell>
        <mxCell id="5Ww77VYzwX19S0LwLlC--3" value="&lt;span style=&quot;font-size: 12px;&quot;&gt;E2 GYM&lt;/span&gt;" style="swimlane;childLayout=stackLayout;horizontal=1;startSize=50;horizontalStack=0;rounded=1;fontSize=14;fontStyle=0;strokeWidth=2;resizeParent=0;resizeLast=1;shadow=0;dashed=0;align=center;arcSize=4;whiteSpace=wrap;html=1;" vertex="1" parent="1">
          <mxGeometry x="-270" y="-560" width="300" height="180" as="geometry" />
        </mxCell>
        <mxCell id="5Ww77VYzwX19S0LwLlC--4" value="&lt;div&gt;&lt;span style=&quot;text-wrap: wrap;&quot;&gt;gym_id&amp;nbsp;&lt;/span&gt;&lt;span style=&quot;background-color: initial;&quot; class=&quot;hljs-type&quot;&gt;INT&lt;/span&gt;&lt;span style=&quot;background-color: initial;&quot;&gt; &lt;/span&gt;&lt;span style=&quot;background-color: initial;&quot; class=&quot;hljs-keyword&quot;&gt;PRIMARY&lt;/span&gt;&lt;span style=&quot;background-color: initial;&quot;&gt; KEY AUTO_INCREMENT,&lt;/span&gt;&lt;/div&gt;&lt;span style=&quot;text-wrap: wrap;&quot;&gt;name&amp;nbsp;&lt;/span&gt;&lt;span class=&quot;hljs-type&quot;&gt;VARCHAR&lt;/span&gt;(&lt;span class=&quot;hljs-number&quot;&gt;100&lt;/span&gt;) &lt;span class=&quot;hljs-keyword&quot;&gt;NOT&lt;/span&gt; &lt;span class=&quot;hljs-keyword&quot;&gt;NULL&lt;/span&gt;,&lt;div&gt;&lt;span style=&quot;text-wrap: wrap;&quot;&gt;availability&amp;nbsp;&lt;/span&gt;&lt;span style=&quot;background-color: initial;&quot; class=&quot;hljs-type&quot;&gt;BOOLEAN&lt;/span&gt;&lt;span style=&quot;background-color: initial;&quot;&gt;,&lt;/span&gt;&lt;span style=&quot;text-wrap: wrap;&quot;&gt;&lt;br&gt;&lt;/span&gt;&lt;/div&gt;&lt;div&gt;&lt;span style=&quot;text-wrap: wrap;&quot;&gt;duration&amp;nbsp;&lt;/span&gt;&lt;span class=&quot;hljs-type&quot;&gt;TIME&lt;/span&gt;,&lt;div style=&quot;text-wrap: wrap;&quot;&gt;opening_time&amp;nbsp;&lt;span style=&quot;background-color: initial; text-wrap: nowrap;&quot; class=&quot;hljs-type&quot;&gt;TIME&lt;/span&gt;&lt;span style=&quot;background-color: initial; text-wrap: nowrap;&quot;&gt;,&lt;/span&gt;&lt;/div&gt;&lt;div style=&quot;text-wrap: wrap;&quot;&gt;closing_time&amp;nbsp;&lt;span style=&quot;background-color: initial; text-wrap: nowrap;&quot; class=&quot;hljs-type&quot;&gt;TIME&lt;/span&gt;&lt;span style=&quot;background-color: initial; text-wrap: nowrap;&quot;&gt;,&lt;/span&gt;&lt;/div&gt;&lt;div style=&quot;text-wrap: wrap;&quot;&gt;location VARCHAR(100), NOT NULL&lt;br&gt;&lt;/div&gt;&lt;/div&gt;" style="align=left;strokeColor=none;fillColor=none;spacingLeft=4;fontSize=12;verticalAlign=top;resizable=0;rotatable=0;part=1;html=1;" vertex="1" parent="5Ww77VYzwX19S0LwLlC--3">
          <mxGeometry y="50" width="300" height="130" as="geometry" />
        </mxCell>
        <mxCell id="5Ww77VYzwX19S0LwLlC--7" value="&lt;span style=&quot;font-size: 12px;&quot;&gt;E5 Event&lt;/span&gt;" style="swimlane;childLayout=stackLayout;horizontal=1;startSize=50;horizontalStack=0;rounded=1;fontSize=14;fontStyle=0;strokeWidth=2;resizeParent=0;resizeLast=1;shadow=0;dashed=0;align=center;arcSize=4;whiteSpace=wrap;html=1;" vertex="1" parent="1">
          <mxGeometry x="760" y="-560" width="290" height="180" as="geometry" />
        </mxCell>
        <mxCell id="5Ww77VYzwX19S0LwLlC--8" value="&lt;div&gt;&lt;span style=&quot;text-wrap: wrap;&quot;&gt;event_id&amp;nbsp;&lt;/span&gt;&lt;span style=&quot;background-color: initial;&quot; class=&quot;hljs-type&quot;&gt;INT&lt;/span&gt;&lt;span style=&quot;background-color: initial;&quot;&gt; &lt;/span&gt;&lt;span style=&quot;background-color: initial;&quot; class=&quot;hljs-keyword&quot;&gt;PRIMARY&lt;/span&gt;&lt;span style=&quot;background-color: initial;&quot;&gt; KEY AUTO_INCREMENT,&lt;/span&gt;&lt;/div&gt;&lt;span style=&quot;text-wrap: wrap;&quot;&gt;name&amp;nbsp;&lt;/span&gt;&lt;span class=&quot;hljs-type&quot;&gt;VARCHAR&lt;/span&gt;(&lt;span class=&quot;hljs-number&quot;&gt;100&lt;/span&gt;) &lt;span class=&quot;hljs-keyword&quot;&gt;NOT&lt;/span&gt; &lt;span class=&quot;hljs-keyword&quot;&gt;NULL&lt;/span&gt;,&lt;div&gt;&lt;span style=&quot;text-wrap: wrap;&quot;&gt;description&amp;nbsp;&lt;/span&gt;&lt;span style=&quot;background-color: initial;&quot;&gt;TEXT&lt;/span&gt;&lt;span style=&quot;text-wrap: wrap;&quot;&gt;&lt;br&gt;&lt;/span&gt;&lt;/div&gt;&lt;div&gt;&lt;span style=&quot;text-wrap: wrap;&quot;&gt;date&amp;nbsp;&lt;/span&gt;&lt;span class=&quot;hljs-type&quot;&gt;DATE&lt;/span&gt;,&lt;div style=&quot;text-wrap: wrap;&quot;&gt;hour&amp;nbsp;&lt;span style=&quot;background-color: initial; text-wrap: nowrap;&quot; class=&quot;hljs-type&quot;&gt;TIME&lt;/span&gt;&lt;span style=&quot;background-color: initial; text-wrap: nowrap;&quot;&gt;,&lt;/span&gt;&lt;/div&gt;&lt;div style=&quot;text-wrap: wrap;&quot;&gt;location VARCHAR(100), NOT NULL&lt;br&gt;&lt;/div&gt;&lt;/div&gt;" style="align=left;strokeColor=none;fillColor=none;spacingLeft=4;fontSize=12;verticalAlign=top;resizable=0;rotatable=0;part=1;html=1;" vertex="1" parent="5Ww77VYzwX19S0LwLlC--7">
          <mxGeometry y="50" width="290" height="130" as="geometry" />
        </mxCell>
        <mxCell id="5Ww77VYzwX19S0LwLlC--9" value="&lt;span style=&quot;font-size: 12px;&quot;&gt;E7&amp;nbsp;HOAFees&lt;/span&gt;" style="swimlane;childLayout=stackLayout;horizontal=1;startSize=50;horizontalStack=0;rounded=1;fontSize=14;fontStyle=0;strokeWidth=2;resizeParent=0;resizeLast=1;shadow=0;dashed=0;align=center;arcSize=4;whiteSpace=wrap;html=1;" vertex="1" parent="1">
          <mxGeometry x="-600" y="-340" width="200" height="200" as="geometry" />
        </mxCell>
        <mxCell id="5Ww77VYzwX19S0LwLlC--10" value="name &lt;span class=&quot;hljs-type&quot;&gt;VARCHAR&lt;/span&gt;(&lt;span class=&quot;hljs-number&quot;&gt;100&lt;/span&gt;),&lt;br/&gt;    &lt;span class=&quot;hljs-type&quot;&gt;date&lt;/span&gt; &lt;span class=&quot;hljs-type&quot;&gt;DATE&lt;/span&gt;,&lt;br/&gt;    price &lt;span class=&quot;hljs-type&quot;&gt;INT&lt;/span&gt;" style="align=left;strokeColor=none;fillColor=none;spacingLeft=4;fontSize=12;verticalAlign=top;resizable=0;rotatable=0;part=1;html=1;" vertex="1" parent="5Ww77VYzwX19S0LwLlC--9">
          <mxGeometry y="50" width="200" height="150" as="geometry" />
        </mxCell>
        <mxCell id="5Ww77VYzwX19S0LwLlC--11" value="&lt;span style=&quot;font-size: 12px;&quot;&gt;E8 Counseling&lt;/span&gt;" style="swimlane;childLayout=stackLayout;horizontal=1;startSize=50;horizontalStack=0;rounded=1;fontSize=14;fontStyle=0;strokeWidth=2;resizeParent=0;resizeLast=1;shadow=0;dashed=0;align=center;arcSize=4;whiteSpace=wrap;html=1;" vertex="1" parent="1">
          <mxGeometry x="-380" y="-340" width="350" height="200" as="geometry" />
        </mxCell>
        <mxCell id="5Ww77VYzwX19S0LwLlC--12" value="counseling_id &lt;span class=&quot;hljs-type&quot;&gt;INT&lt;/span&gt; &lt;span class=&quot;hljs-keyword&quot;&gt;PRIMARY&lt;/span&gt; KEY AUTO_INCREMENT,&lt;br/&gt;    advisor_name &lt;span class=&quot;hljs-type&quot;&gt;VARCHAR&lt;/span&gt;(&lt;span class=&quot;hljs-number&quot;&gt;100&lt;/span&gt;),&lt;br/&gt;    &lt;span class=&quot;hljs-type&quot;&gt;date&lt;/span&gt; &lt;span class=&quot;hljs-type&quot;&gt;DATE&lt;/span&gt;,&lt;br/&gt;    &lt;span class=&quot;hljs-keyword&quot;&gt;hour&lt;/span&gt; &lt;span class=&quot;hljs-type&quot;&gt;TIME&lt;/span&gt;,&lt;br/&gt;    location &lt;span class=&quot;hljs-type&quot;&gt;VARCHAR&lt;/span&gt;(&lt;span class=&quot;hljs-number&quot;&gt;100&lt;/span&gt;) &lt;span class=&quot;hljs-keyword&quot;&gt;NOT&lt;/span&gt; &lt;span class=&quot;hljs-keyword&quot;&gt;NULL&lt;/span&gt;,&lt;br/&gt;    duration &lt;span class=&quot;hljs-type&quot;&gt;TIME&lt;/span&gt;,&lt;br/&gt;    speciality &lt;span class=&quot;hljs-type&quot;&gt;VARCHAR&lt;/span&gt;(&lt;span class=&quot;hljs-number&quot;&gt;100&lt;/span&gt;),&lt;br/&gt;    availability &lt;span class=&quot;hljs-type&quot;&gt;BOOLEAN&lt;/span&gt;" style="align=left;strokeColor=none;fillColor=none;spacingLeft=4;fontSize=12;verticalAlign=top;resizable=0;rotatable=0;part=1;html=1;" vertex="1" parent="5Ww77VYzwX19S0LwLlC--11">
          <mxGeometry y="50" width="350" height="150" as="geometry" />
        </mxCell>
        <mxCell id="5Ww77VYzwX19S0LwLlC--13" value="&lt;span style=&quot;font-size: 12px;&quot;&gt;E9 Resident&lt;/span&gt;" style="swimlane;childLayout=stackLayout;horizontal=1;startSize=50;horizontalStack=0;rounded=1;fontSize=14;fontStyle=0;strokeWidth=2;resizeParent=0;resizeLast=1;shadow=0;dashed=0;align=center;arcSize=4;whiteSpace=wrap;html=1;" vertex="1" parent="1">
          <mxGeometry x="-10" y="-340" width="310" height="200" as="geometry" />
        </mxCell>
        <mxCell id="5Ww77VYzwX19S0LwLlC--14" value="resident_id &lt;span class=&quot;hljs-type&quot;&gt;INT&lt;/span&gt; &lt;span class=&quot;hljs-keyword&quot;&gt;PRIMARY&lt;/span&gt; KEY AUTO_INCREMENT,&lt;br/&gt;    name &lt;span class=&quot;hljs-type&quot;&gt;VARCHAR&lt;/span&gt;(&lt;span class=&quot;hljs-number&quot;&gt;100&lt;/span&gt;),&lt;br/&gt;    email &lt;span class=&quot;hljs-type&quot;&gt;VARCHAR&lt;/span&gt;(&lt;span class=&quot;hljs-number&quot;&gt;100&lt;/span&gt;),&lt;br/&gt;    number_phone &lt;span class=&quot;hljs-type&quot;&gt;INT&lt;/span&gt;,&lt;br/&gt;    number_document &lt;span class=&quot;hljs-type&quot;&gt;INT&lt;/span&gt;" style="align=left;strokeColor=none;fillColor=none;spacingLeft=4;fontSize=12;verticalAlign=top;resizable=0;rotatable=0;part=1;html=1;" vertex="1" parent="5Ww77VYzwX19S0LwLlC--13">
          <mxGeometry y="50" width="310" height="150" as="geometry" />
        </mxCell>
        <mxCell id="5Ww77VYzwX19S0LwLlC--15" value="&lt;span style=&quot;font-size: 12px;&quot;&gt;E10 Visitor&lt;/span&gt;" style="swimlane;childLayout=stackLayout;horizontal=1;startSize=50;horizontalStack=0;rounded=1;fontSize=14;fontStyle=0;strokeWidth=2;resizeParent=0;resizeLast=1;shadow=0;dashed=0;align=center;arcSize=4;whiteSpace=wrap;html=1;" vertex="1" parent="1">
          <mxGeometry x="320" y="-340" width="300" height="200" as="geometry" />
        </mxCell>
        <mxCell id="5Ww77VYzwX19S0LwLlC--16" value="visitor_id &lt;span class=&quot;hljs-type&quot;&gt;INT&lt;/span&gt; &lt;span class=&quot;hljs-keyword&quot;&gt;PRIMARY&lt;/span&gt; KEY AUTO_INCREMENT,&lt;br/&gt;    name &lt;span class=&quot;hljs-type&quot;&gt;VARCHAR&lt;/span&gt;(&lt;span class=&quot;hljs-number&quot;&gt;100&lt;/span&gt;),&lt;br/&gt;    email &lt;span class=&quot;hljs-type&quot;&gt;VARCHAR&lt;/span&gt;(&lt;span class=&quot;hljs-number&quot;&gt;100&lt;/span&gt;),&lt;br/&gt;    number_phone &lt;span class=&quot;hljs-type&quot;&gt;INT&lt;/span&gt;,&lt;br/&gt;    number_document &lt;span class=&quot;hljs-type&quot;&gt;INT&lt;/span&gt;,&lt;br/&gt;    status &lt;span class=&quot;hljs-type&quot;&gt;BOOLEAN&lt;/span&gt;" style="align=left;strokeColor=none;fillColor=none;spacingLeft=4;fontSize=12;verticalAlign=top;resizable=0;rotatable=0;part=1;html=1;" vertex="1" parent="5Ww77VYzwX19S0LwLlC--15">
          <mxGeometry y="50" width="300" height="150" as="geometry" />
        </mxCell>
        <mxCell id="5Ww77VYzwX19S0LwLlC--17" value="&lt;span style=&quot;font-size: 12px;&quot;&gt;E11&lt;/span&gt;&lt;div&gt;&lt;span style=&quot;font-size: 12px;&quot;&gt;PropertyManager&lt;/span&gt;&lt;/div&gt;" style="swimlane;childLayout=stackLayout;horizontal=1;startSize=50;horizontalStack=0;rounded=1;fontSize=14;fontStyle=0;strokeWidth=2;resizeParent=0;resizeLast=1;shadow=0;dashed=0;align=center;arcSize=4;whiteSpace=wrap;html=1;" vertex="1" parent="1">
          <mxGeometry x="640" y="-340" width="360" height="200" as="geometry" />
        </mxCell>
        <mxCell id="5Ww77VYzwX19S0LwLlC--18" value="&lt;div&gt;propertyManager_id &lt;span class=&quot;hljs-type&quot;&gt;INT&lt;/span&gt; &lt;span class=&quot;hljs-keyword&quot;&gt;PRIMARY&lt;/span&gt; KEY AUTO_INCREMENT,&lt;br/&gt;    name &lt;span class=&quot;hljs-type&quot;&gt;VARCHAR&lt;/span&gt;(&lt;span class=&quot;hljs-number&quot;&gt;100&lt;/span&gt;),&lt;br/&gt;    email &lt;span class=&quot;hljs-type&quot;&gt;VARCHAR&lt;/span&gt;(&lt;span class=&quot;hljs-number&quot;&gt;100&lt;/span&gt;),&lt;br/&gt;    number_phone &lt;span class=&quot;hljs-type&quot;&gt;INT&lt;/span&gt;,&lt;br/&gt;    number_document &lt;span class=&quot;hljs-type&quot;&gt;INT&lt;/span&gt;,&lt;br/&gt;    location &lt;span class=&quot;hljs-type&quot;&gt;VARCHAR&lt;/span&gt;(&lt;span class=&quot;hljs-number&quot;&gt;100&lt;/span&gt;) &lt;span class=&quot;hljs-keyword&quot;&gt;NOT&lt;/span&gt; &lt;span class=&quot;hljs-keyword&quot;&gt;NULL&lt;/span&gt;&lt;br&gt;&lt;/div&gt;" style="align=left;strokeColor=none;fillColor=none;spacingLeft=4;fontSize=12;verticalAlign=top;resizable=0;rotatable=0;part=1;html=1;" vertex="1" parent="5Ww77VYzwX19S0LwLlC--17">
          <mxGeometry y="50" width="360" height="150" as="geometry" />
        </mxCell>
        <mxCell id="5Ww77VYzwX19S0LwLlC--19" value="&lt;span style=&quot;font-size: 12px;&quot;&gt;E12 Rerport&lt;/span&gt;" style="swimlane;childLayout=stackLayout;horizontal=1;startSize=50;horizontalStack=0;rounded=1;fontSize=14;fontStyle=0;strokeWidth=2;resizeParent=0;resizeLast=1;shadow=0;dashed=0;align=center;arcSize=4;whiteSpace=wrap;html=1;" vertex="1" parent="1">
          <mxGeometry x="1020" y="-340" width="270" height="200" as="geometry" />
        </mxCell>
        <mxCell id="5Ww77VYzwX19S0LwLlC--20" value="name &lt;span class=&quot;hljs-type&quot;&gt;VARCHAR&lt;/span&gt;(&lt;span class=&quot;hljs-number&quot;&gt;100&lt;/span&gt;),&lt;br/&gt;    type &lt;span class=&quot;hljs-type&quot;&gt;VARCHAR&lt;/span&gt;(&lt;span class=&quot;hljs-number&quot;&gt;50&lt;/span&gt;),&lt;br/&gt;    description TEXT,&lt;br/&gt;    &lt;span class=&quot;hljs-type&quot;&gt;date&lt;/span&gt; &lt;span class=&quot;hljs-type&quot;&gt;DATE&lt;/span&gt;,&lt;br/&gt;    status &lt;span class=&quot;hljs-type&quot;&gt;BOOLEAN&lt;/span&gt;" style="align=left;strokeColor=none;fillColor=none;spacingLeft=4;fontSize=12;verticalAlign=top;resizable=0;rotatable=0;part=1;html=1;" vertex="1" parent="5Ww77VYzwX19S0LwLlC--19">
          <mxGeometry y="50" width="270" height="150" as="geometry" />
        </mxCell>
        <mxCell id="5Ww77VYzwX19S0LwLlC--21" value="&lt;span style=&quot;font-size: 12px;&quot;&gt;E13 Deliveries&lt;/span&gt;" style="swimlane;childLayout=stackLayout;horizontal=1;startSize=50;horizontalStack=0;rounded=1;fontSize=14;fontStyle=0;strokeWidth=2;resizeParent=0;resizeLast=1;shadow=0;dashed=0;align=center;arcSize=4;whiteSpace=wrap;html=1;" vertex="1" parent="1">
          <mxGeometry x="-600" y="-120" width="260" height="190" as="geometry" />
        </mxCell>
        <mxCell id="5Ww77VYzwX19S0LwLlC--22" value="name &lt;span class=&quot;hljs-type&quot;&gt;VARCHAR&lt;/span&gt;(&lt;span class=&quot;hljs-number&quot;&gt;100&lt;/span&gt;),&lt;br/&gt;    type &lt;span class=&quot;hljs-type&quot;&gt;VARCHAR&lt;/span&gt;(&lt;span class=&quot;hljs-number&quot;&gt;50&lt;/span&gt;),&lt;br/&gt;    description TEXT,&lt;br/&gt;    &lt;span class=&quot;hljs-type&quot;&gt;date&lt;/span&gt; &lt;span class=&quot;hljs-type&quot;&gt;DATE&lt;/span&gt;,&lt;br/&gt;    status &lt;span class=&quot;hljs-type&quot;&gt;BOOLEAN&lt;/span&gt;" style="align=left;strokeColor=none;fillColor=none;spacingLeft=4;fontSize=12;verticalAlign=top;resizable=0;rotatable=0;part=1;html=1;" vertex="1" parent="5Ww77VYzwX19S0LwLlC--21">
          <mxGeometry y="50" width="260" height="140" as="geometry" />
        </mxCell>
        <mxCell id="5Ww77VYzwX19S0LwLlC--23" value="&lt;span style=&quot;font-size: 12px;&quot;&gt;E14 Reminders&lt;/span&gt;" style="swimlane;childLayout=stackLayout;horizontal=1;startSize=50;horizontalStack=0;rounded=1;fontSize=14;fontStyle=0;strokeWidth=2;resizeParent=0;resizeLast=1;shadow=0;dashed=0;align=center;arcSize=4;whiteSpace=wrap;html=1;" vertex="1" parent="1">
          <mxGeometry x="-310" y="-120" width="310" height="190" as="geometry" />
        </mxCell>
        <mxCell id="5Ww77VYzwX19S0LwLlC--24" value="&lt;div&gt;name &lt;span class=&quot;hljs-type&quot;&gt;VARCHAR&lt;/span&gt;(&lt;span class=&quot;hljs-number&quot;&gt;100&lt;/span&gt;),&lt;br/&gt;    type &lt;span class=&quot;hljs-type&quot;&gt;VARCHAR&lt;/span&gt;(&lt;span class=&quot;hljs-number&quot;&gt;50&lt;/span&gt;),&lt;br/&gt;    description TEXT,&lt;br/&gt;    &lt;span class=&quot;hljs-type&quot;&gt;date&lt;/span&gt; &lt;span class=&quot;hljs-type&quot;&gt;DATE&lt;/span&gt;,&lt;br/&gt;    &lt;span class=&quot;hljs-keyword&quot;&gt;hour&lt;/span&gt; &lt;span class=&quot;hljs-type&quot;&gt;TIME&lt;/span&gt;,&lt;br/&gt;    location &lt;span class=&quot;hljs-type&quot;&gt;VARCHAR&lt;/span&gt;(&lt;span class=&quot;hljs-number&quot;&gt;100&lt;/span&gt;) &lt;span class=&quot;hljs-keyword&quot;&gt;NOT&lt;/span&gt; &lt;span class=&quot;hljs-keyword&quot;&gt;NULL&lt;/span&gt;,&lt;br/&gt;    status &lt;span class=&quot;hljs-type&quot;&gt;BOOLEAN&lt;/span&gt;&lt;br&gt;&lt;/div&gt;" style="align=left;strokeColor=none;fillColor=none;spacingLeft=4;fontSize=12;verticalAlign=top;resizable=0;rotatable=0;part=1;html=1;" vertex="1" parent="5Ww77VYzwX19S0LwLlC--23">
          <mxGeometry y="50" width="310" height="140" as="geometry" />
        </mxCell>
        <mxCell id="5Ww77VYzwX19S0LwLlC--25" value="&lt;span style=&quot;font-size: 12px;&quot;&gt;E15 Apartment&lt;/span&gt;" style="swimlane;childLayout=stackLayout;horizontal=1;startSize=50;horizontalStack=0;rounded=1;fontSize=14;fontStyle=0;strokeWidth=2;resizeParent=0;resizeLast=1;shadow=0;dashed=0;align=center;arcSize=4;whiteSpace=wrap;html=1;" vertex="1" parent="1">
          <mxGeometry x="20" y="-120" width="300" height="190" as="geometry" />
        </mxCell>
        <mxCell id="5Ww77VYzwX19S0LwLlC--26" value="number &lt;span class=&quot;hljs-type&quot;&gt;INT&lt;/span&gt;,&lt;br/&gt;    size &lt;span class=&quot;hljs-type&quot;&gt;FLOAT&lt;/span&gt;,&lt;br/&gt;    price &lt;span class=&quot;hljs-type&quot;&gt;INT&lt;/span&gt;,&lt;br/&gt;    location &lt;span class=&quot;hljs-type&quot;&gt;VARCHAR&lt;/span&gt;(&lt;span class=&quot;hljs-number&quot;&gt;100&lt;/span&gt;) &lt;span class=&quot;hljs-keyword&quot;&gt;NOT&lt;/span&gt; &lt;span class=&quot;hljs-keyword&quot;&gt;NULL&lt;/span&gt;,&lt;br/&gt;    status &lt;span class=&quot;hljs-type&quot;&gt;BOOLEAN&lt;/span&gt;,&lt;br/&gt;    number_room &lt;span class=&quot;hljs-type&quot;&gt;INT&lt;/span&gt;,&lt;br/&gt;    number_bathroom &lt;span class=&quot;hljs-type&quot;&gt;INT&lt;/span&gt;,&lt;br/&gt;    hall &lt;span class=&quot;hljs-type&quot;&gt;VARCHAR&lt;/span&gt;(&lt;span class=&quot;hljs-number&quot;&gt;50&lt;/span&gt;),&lt;br/&gt;    kitchen &lt;span class=&quot;hljs-type&quot;&gt;VARCHAR&lt;/span&gt;(&lt;span class=&quot;hljs-number&quot;&gt;50&lt;/span&gt;)" style="align=left;strokeColor=none;fillColor=none;spacingLeft=4;fontSize=12;verticalAlign=top;resizable=0;rotatable=0;part=1;html=1;" vertex="1" parent="5Ww77VYzwX19S0LwLlC--25">
          <mxGeometry y="50" width="300" height="140" as="geometry" />
        </mxCell>
        <mxCell id="5Ww77VYzwX19S0LwLlC--27" value="&lt;span style=&quot;font-size: 12px;&quot;&gt;E16 BLock&lt;/span&gt;" style="swimlane;childLayout=stackLayout;horizontal=1;startSize=50;horizontalStack=0;rounded=1;fontSize=14;fontStyle=0;strokeWidth=2;resizeParent=0;resizeLast=1;shadow=0;dashed=0;align=center;arcSize=4;whiteSpace=wrap;html=1;" vertex="1" parent="1">
          <mxGeometry x="337" y="-120" width="266" height="190" as="geometry" />
        </mxCell>
        <mxCell id="5Ww77VYzwX19S0LwLlC--28" value="name &lt;span class=&quot;hljs-type&quot;&gt;VARCHAR&lt;/span&gt;(&lt;span class=&quot;hljs-number&quot;&gt;100&lt;/span&gt;),&lt;br/&gt;    number_apartments &lt;span class=&quot;hljs-type&quot;&gt;INT&lt;/span&gt;,&lt;br/&gt;    floors_number &lt;span class=&quot;hljs-type&quot;&gt;INT&lt;/span&gt;" style="align=left;strokeColor=none;fillColor=none;spacingLeft=4;fontSize=12;verticalAlign=top;resizable=0;rotatable=0;part=1;html=1;" vertex="1" parent="5Ww77VYzwX19S0LwLlC--27">
          <mxGeometry y="50" width="266" height="140" as="geometry" />
        </mxCell>
        <mxCell id="5Ww77VYzwX19S0LwLlC--29" value="&lt;span style=&quot;font-size: 12px;&quot;&gt;E17 Payment&lt;/span&gt;" style="swimlane;childLayout=stackLayout;horizontal=1;startSize=50;horizontalStack=0;rounded=1;fontSize=14;fontStyle=0;strokeWidth=2;resizeParent=0;resizeLast=1;shadow=0;dashed=0;align=center;arcSize=4;whiteSpace=wrap;html=1;" vertex="1" parent="1">
          <mxGeometry x="620" y="-120" width="240" height="190" as="geometry" />
        </mxCell>
        <mxCell id="5Ww77VYzwX19S0LwLlC--30" value="name &lt;span class=&quot;hljs-type&quot;&gt;VARCHAR&lt;/span&gt;(&lt;span class=&quot;hljs-number&quot;&gt;100&lt;/span&gt;),&lt;br/&gt;    status &lt;span class=&quot;hljs-type&quot;&gt;BOOLEAN&lt;/span&gt;,&lt;br/&gt;    type &lt;span class=&quot;hljs-type&quot;&gt;VARCHAR&lt;/span&gt;(&lt;span class=&quot;hljs-number&quot;&gt;50&lt;/span&gt;),&lt;br/&gt;    price &lt;span class=&quot;hljs-type&quot;&gt;INT&lt;/span&gt;,&lt;br/&gt;    &lt;span class=&quot;hljs-type&quot;&gt;date&lt;/span&gt; &lt;span class=&quot;hljs-type&quot;&gt;DATE&lt;/span&gt;,&lt;br/&gt;    payment_method &lt;span class=&quot;hljs-type&quot;&gt;VARCHAR&lt;/span&gt;(&lt;span class=&quot;hljs-number&quot;&gt;50&lt;/span&gt;)" style="align=left;strokeColor=none;fillColor=none;spacingLeft=4;fontSize=12;verticalAlign=top;resizable=0;rotatable=0;part=1;html=1;" vertex="1" parent="5Ww77VYzwX19S0LwLlC--29">
          <mxGeometry y="50" width="240" height="140" as="geometry" />
        </mxCell>
        <mxCell id="5Ww77VYzwX19S0LwLlC--68" value="&lt;span style=&quot;font-size: 12px;&quot;&gt;E18&lt;/span&gt;&lt;div&gt;&lt;span style=&quot;font-size: 12px;&quot;&gt;Resident_Counseling&lt;/span&gt;&lt;div&gt;&lt;/div&gt;&lt;/div&gt;" style="swimlane;childLayout=stackLayout;horizontal=1;startSize=50;horizontalStack=0;rounded=1;fontSize=14;fontStyle=0;strokeWidth=2;resizeParent=0;resizeLast=1;shadow=0;dashed=0;align=center;arcSize=4;whiteSpace=wrap;html=1;" vertex="1" parent="1">
          <mxGeometry x="880" y="-120" width="410" height="190" as="geometry" />
        </mxCell>
        <mxCell id="5Ww77VYzwX19S0LwLlC--69" value="id &lt;span class=&quot;hljs-type&quot;&gt;INT&lt;/span&gt; &lt;span class=&quot;hljs-keyword&quot;&gt;PRIMARY&lt;/span&gt; KEY AUTO_INCREMENT,&lt;br/&gt;    resident &lt;span class=&quot;hljs-type&quot;&gt;INT&lt;/span&gt;,&lt;br/&gt;    counseling &lt;span class=&quot;hljs-type&quot;&gt;INT&lt;/span&gt;,&lt;br/&gt;    salary &lt;span class=&quot;hljs-type&quot;&gt;INT&lt;/span&gt;,&lt;br/&gt;    &lt;span class=&quot;hljs-keyword&quot;&gt;FOREIGN&lt;/span&gt; KEY (resident) &lt;span class=&quot;hljs-keyword&quot;&gt;REFERENCES&lt;/span&gt; Resident(resident_id),&lt;br/&gt;    &lt;span class=&quot;hljs-keyword&quot;&gt;FOREIGN&lt;/span&gt; KEY (counseling) &lt;span class=&quot;hljs-keyword&quot;&gt;REFERENCES&lt;/span&gt; Counseling(counseling_id)" style="align=left;strokeColor=none;fillColor=none;spacingLeft=4;fontSize=12;verticalAlign=top;resizable=0;rotatable=0;part=1;html=1;" vertex="1" parent="5Ww77VYzwX19S0LwLlC--68">
          <mxGeometry y="50" width="410" height="140" as="geometry" />
        </mxCell>
        <mxCell id="5Ww77VYzwX19S0LwLlC--72" value="&lt;span style=&quot;font-size: 12px;&quot;&gt;E19&lt;/span&gt;&lt;div&gt;&lt;span style=&quot;font-size: 12px;&quot;&gt;Resident_Event&lt;/span&gt;&lt;div&gt;&lt;/div&gt;&lt;/div&gt;" style="swimlane;childLayout=stackLayout;horizontal=1;startSize=50;horizontalStack=0;rounded=1;fontSize=14;fontStyle=0;strokeWidth=2;resizeParent=0;resizeLast=1;shadow=0;dashed=0;align=center;arcSize=4;whiteSpace=wrap;html=1;" vertex="1" parent="1">
          <mxGeometry x="-600" y="90" width="370" height="200" as="geometry" />
        </mxCell>
        <mxCell id="5Ww77VYzwX19S0LwLlC--73" value="&lt;div&gt;id &lt;span class=&quot;hljs-type&quot;&gt;INT&lt;/span&gt; &lt;span class=&quot;hljs-keyword&quot;&gt;PRIMARY&lt;/span&gt; KEY AUTO_INCREMENT,&lt;br/&gt;    resident_id &lt;span class=&quot;hljs-type&quot;&gt;INT&lt;/span&gt;,&lt;br/&gt;    event_id &lt;span class=&quot;hljs-type&quot;&gt;INT&lt;/span&gt;,&lt;br/&gt;    &lt;span class=&quot;hljs-keyword&quot;&gt;FOREIGN&lt;/span&gt; KEY (resident_id) &lt;span class=&quot;hljs-keyword&quot;&gt;REFERENCES&lt;/span&gt; Resident(resident_id),&lt;br/&gt;    &lt;span class=&quot;hljs-keyword&quot;&gt;FOREIGN&lt;/span&gt; KEY (event_id) &lt;span class=&quot;hljs-keyword&quot;&gt;REFERENCES&lt;/span&gt; Event(event_id)&lt;br&gt;&lt;/div&gt;" style="align=left;strokeColor=none;fillColor=none;spacingLeft=4;fontSize=12;verticalAlign=top;resizable=0;rotatable=0;part=1;html=1;" vertex="1" parent="5Ww77VYzwX19S0LwLlC--72">
          <mxGeometry y="50" width="370" height="150" as="geometry" />
        </mxCell>
        <mxCell id="5Ww77VYzwX19S0LwLlC--74" value="&lt;span style=&quot;font-size: 12px;&quot;&gt;E20&lt;/span&gt;&lt;div&gt;&lt;span style=&quot;font-size: 12px;&quot;&gt;Resident_GYM&lt;/span&gt;&lt;div&gt;&lt;/div&gt;&lt;/div&gt;" style="swimlane;childLayout=stackLayout;horizontal=1;startSize=50;horizontalStack=0;rounded=1;fontSize=14;fontStyle=0;strokeWidth=2;resizeParent=0;resizeLast=1;shadow=0;dashed=0;align=center;arcSize=4;whiteSpace=wrap;html=1;" vertex="1" parent="1">
          <mxGeometry x="-210" y="90" width="380" height="200" as="geometry" />
        </mxCell>
        <mxCell id="5Ww77VYzwX19S0LwLlC--75" value="&lt;div&gt;&lt;span style=&quot;text-wrap: wrap;&quot;&gt;i&lt;/span&gt;&lt;span style=&quot;background-color: initial;&quot;&gt;d &lt;/span&gt;&lt;span style=&quot;background-color: initial;&quot; class=&quot;hljs-type&quot;&gt;INT&lt;/span&gt;&lt;span style=&quot;background-color: initial;&quot;&gt; &lt;/span&gt;&lt;span style=&quot;background-color: initial;&quot; class=&quot;hljs-keyword&quot;&gt;PRIMARY&lt;/span&gt;&lt;span style=&quot;background-color: initial;&quot;&gt; KEY AUTO_INCREMENT,&lt;br/&gt;    resident_id &lt;/span&gt;&lt;span style=&quot;background-color: initial;&quot; class=&quot;hljs-type&quot;&gt;INT&lt;/span&gt;&lt;span style=&quot;background-color: initial;&quot;&gt;,&lt;br/&gt;    gym_id &lt;/span&gt;&lt;span style=&quot;background-color: initial;&quot; class=&quot;hljs-type&quot;&gt;INT&lt;/span&gt;&lt;span style=&quot;background-color: initial;&quot;&gt;,&lt;br/&gt;    &lt;/span&gt;&lt;span style=&quot;background-color: initial;&quot; class=&quot;hljs-keyword&quot;&gt;FOREIGN&lt;/span&gt;&lt;span style=&quot;background-color: initial;&quot;&gt; KEY (resident_id) &lt;/span&gt;&lt;span style=&quot;background-color: initial;&quot; class=&quot;hljs-keyword&quot;&gt;REFERENCES&lt;/span&gt;&lt;span style=&quot;background-color: initial;&quot;&gt; Resident(resident_id),&lt;br/&gt;    &lt;/span&gt;&lt;span style=&quot;background-color: initial;&quot; class=&quot;hljs-keyword&quot;&gt;FOREIGN&lt;/span&gt;&lt;span style=&quot;background-color: initial;&quot;&gt; KEY (gym_id) &lt;/span&gt;&lt;span style=&quot;background-color: initial;&quot; class=&quot;hljs-keyword&quot;&gt;REFERENCES&lt;/span&gt;&lt;span style=&quot;background-color: initial;&quot;&gt; Gym(gym_id)&lt;/span&gt;&lt;/div&gt;" style="align=left;strokeColor=none;fillColor=none;spacingLeft=4;fontSize=12;verticalAlign=top;resizable=0;rotatable=0;part=1;html=1;" vertex="1" parent="5Ww77VYzwX19S0LwLlC--74">
          <mxGeometry y="50" width="380" height="150" as="geometry" />
        </mxCell>
        <mxCell id="5Ww77VYzwX19S0LwLlC--76" value="&lt;span style=&quot;font-size: 12px;&quot;&gt;E21&lt;/span&gt;&lt;div&gt;&lt;span style=&quot;font-size: 12px;&quot;&gt;Resident_sportField&lt;/span&gt;&lt;div&gt;&lt;/div&gt;&lt;/div&gt;" style="swimlane;childLayout=stackLayout;horizontal=1;startSize=50;horizontalStack=0;rounded=1;fontSize=14;fontStyle=0;strokeWidth=2;resizeParent=0;resizeLast=1;shadow=0;dashed=0;align=center;arcSize=4;whiteSpace=wrap;html=1;" vertex="1" parent="1">
          <mxGeometry x="190" y="90" width="420" height="200" as="geometry" />
        </mxCell>
        <mxCell id="5Ww77VYzwX19S0LwLlC--77" value="&lt;div&gt;id &lt;span class=&quot;hljs-type&quot;&gt;INT&lt;/span&gt; &lt;span class=&quot;hljs-keyword&quot;&gt;PRIMARY&lt;/span&gt; KEY AUTO_INCREMENT,&lt;br/&gt;    resident_id &lt;span class=&quot;hljs-type&quot;&gt;INT&lt;/span&gt;,&lt;br/&gt;    sportField_id &lt;span class=&quot;hljs-type&quot;&gt;INT&lt;/span&gt;,&lt;br/&gt;    &lt;span class=&quot;hljs-keyword&quot;&gt;FOREIGN&lt;/span&gt; KEY (resident_id) &lt;span class=&quot;hljs-keyword&quot;&gt;REFERENCES&lt;/span&gt; Resident(resident_id),&lt;br/&gt;    &lt;span class=&quot;hljs-keyword&quot;&gt;FOREIGN&lt;/span&gt; KEY (sportField_id) &lt;span class=&quot;hljs-keyword&quot;&gt;REFERENCES&lt;/span&gt; SportField(sportField_id)&lt;br&gt;&lt;/div&gt;" style="align=left;strokeColor=none;fillColor=none;spacingLeft=4;fontSize=12;verticalAlign=top;resizable=0;rotatable=0;part=1;html=1;" vertex="1" parent="5Ww77VYzwX19S0LwLlC--76">
          <mxGeometry y="50" width="420" height="150" as="geometry" />
        </mxCell>
        <mxCell id="5Ww77VYzwX19S0LwLlC--78" value="&lt;span style=&quot;font-size: 12px;&quot;&gt;E22&lt;/span&gt;&lt;div&gt;&lt;span style=&quot;font-size: 12px; background-color: initial;&quot;&gt;Resident_communityRoom&lt;/span&gt;&lt;div&gt;&lt;div&gt;&lt;/div&gt;&lt;/div&gt;&lt;/div&gt;" style="swimlane;childLayout=stackLayout;horizontal=1;startSize=50;horizontalStack=0;rounded=1;fontSize=14;fontStyle=0;strokeWidth=2;resizeParent=0;resizeLast=1;shadow=0;dashed=0;align=center;arcSize=4;whiteSpace=wrap;html=1;" vertex="1" parent="1">
          <mxGeometry x="620" y="90" width="520" height="200" as="geometry" />
        </mxCell>
        <mxCell id="5Ww77VYzwX19S0LwLlC--79" value="&lt;div&gt;id &lt;span class=&quot;hljs-type&quot;&gt;INT&lt;/span&gt; &lt;span class=&quot;hljs-keyword&quot;&gt;PRIMARY&lt;/span&gt; KEY AUTO_INCREMENT,&lt;br/&gt;    resident_id &lt;span class=&quot;hljs-type&quot;&gt;INT&lt;/span&gt;,&lt;br/&gt;    communityRoom_id &lt;span class=&quot;hljs-type&quot;&gt;INT&lt;/span&gt;,&lt;br/&gt;    &lt;span class=&quot;hljs-keyword&quot;&gt;FOREIGN&lt;/span&gt; KEY (resident_id) &lt;span class=&quot;hljs-keyword&quot;&gt;REFERENCES&lt;/span&gt; Resident(resident_id),&lt;br/&gt;    &lt;span class=&quot;hljs-keyword&quot;&gt;FOREIGN&lt;/span&gt; KEY (communityRoom_id) &lt;span class=&quot;hljs-keyword&quot;&gt;REFERENCES&lt;/span&gt; CommunityRoom(communityRoom_id)&lt;br&gt;&lt;/div&gt;" style="align=left;strokeColor=none;fillColor=none;spacingLeft=4;fontSize=12;verticalAlign=top;resizable=0;rotatable=0;part=1;html=1;" vertex="1" parent="5Ww77VYzwX19S0LwLlC--78">
          <mxGeometry y="50" width="520" height="150" as="geometry" />
        </mxCell>
        <mxCell id="5Ww77VYzwX19S0LwLlC--80" value="&lt;span style=&quot;font-size: 12px;&quot;&gt;E23&lt;/span&gt;&lt;div&gt;&lt;span style=&quot;font-size: 12px; background-color: initial;&quot;&gt;Visitor_Event&lt;/span&gt;&lt;div&gt;&lt;div&gt;&lt;/div&gt;&lt;/div&gt;&lt;/div&gt;" style="swimlane;childLayout=stackLayout;horizontal=1;startSize=50;horizontalStack=0;rounded=1;fontSize=14;fontStyle=0;strokeWidth=2;resizeParent=0;resizeLast=1;shadow=0;dashed=0;align=center;arcSize=4;whiteSpace=wrap;html=1;" vertex="1" parent="1">
          <mxGeometry x="-600" y="320" width="340" height="170" as="geometry" />
        </mxCell>
        <mxCell id="5Ww77VYzwX19S0LwLlC--81" value="&lt;div&gt;&lt;span style=&quot;text-wrap: wrap;&quot;&gt;i&lt;/span&gt;&lt;span style=&quot;background-color: initial;&quot;&gt;d &lt;/span&gt;&lt;span style=&quot;background-color: initial;&quot; class=&quot;hljs-type&quot;&gt;INT&lt;/span&gt;&lt;span style=&quot;background-color: initial;&quot;&gt; &lt;/span&gt;&lt;span style=&quot;background-color: initial;&quot; class=&quot;hljs-keyword&quot;&gt;PRIMARY&lt;/span&gt;&lt;span style=&quot;background-color: initial;&quot;&gt; KEY AUTO_INCREMENT,&lt;br/&gt;    visitor_id &lt;/span&gt;&lt;span style=&quot;background-color: initial;&quot; class=&quot;hljs-type&quot;&gt;INT&lt;/span&gt;&lt;span style=&quot;background-color: initial;&quot;&gt;,&lt;br/&gt;    event_id &lt;/span&gt;&lt;span style=&quot;background-color: initial;&quot; class=&quot;hljs-type&quot;&gt;INT&lt;/span&gt;&lt;span style=&quot;background-color: initial;&quot;&gt;,&lt;br/&gt;    &lt;/span&gt;&lt;span style=&quot;background-color: initial;&quot; class=&quot;hljs-keyword&quot;&gt;FOREIGN&lt;/span&gt;&lt;span style=&quot;background-color: initial;&quot;&gt; KEY (visitor_id) &lt;/span&gt;&lt;span style=&quot;background-color: initial;&quot; class=&quot;hljs-keyword&quot;&gt;REFERENCES&lt;/span&gt;&lt;span style=&quot;background-color: initial;&quot;&gt; Visitor(visitor_id),&lt;br/&gt;    &lt;/span&gt;&lt;span style=&quot;background-color: initial;&quot; class=&quot;hljs-keyword&quot;&gt;FOREIGN&lt;/span&gt;&lt;span style=&quot;background-color: initial;&quot;&gt; KEY (event_id) &lt;/span&gt;&lt;span style=&quot;background-color: initial;&quot; class=&quot;hljs-keyword&quot;&gt;REFERENCES&lt;/span&gt;&lt;span style=&quot;background-color: initial;&quot;&gt; Event(event_id)&lt;/span&gt;&lt;/div&gt;" style="align=left;strokeColor=none;fillColor=none;spacingLeft=4;fontSize=12;verticalAlign=top;resizable=0;rotatable=0;part=1;html=1;" vertex="1" parent="5Ww77VYzwX19S0LwLlC--80">
          <mxGeometry y="50" width="340" height="120" as="geometry" />
        </mxCell>
        <mxCell id="5Ww77VYzwX19S0LwLlC--82" value="&lt;span style=&quot;font-size: 12px;&quot;&gt;E24&lt;/span&gt;&lt;div&gt;&lt;span style=&quot;font-size: 12px; background-color: initial;&quot;&gt;Visitor_GYM&lt;/span&gt;&lt;div&gt;&lt;div&gt;&lt;/div&gt;&lt;/div&gt;&lt;/div&gt;" style="swimlane;childLayout=stackLayout;horizontal=1;startSize=50;horizontalStack=0;rounded=1;fontSize=14;fontStyle=0;strokeWidth=2;resizeParent=0;resizeLast=1;shadow=0;dashed=0;align=center;arcSize=4;whiteSpace=wrap;html=1;" vertex="1" parent="1">
          <mxGeometry x="-230" y="320" width="350" height="170" as="geometry" />
        </mxCell>
        <mxCell id="5Ww77VYzwX19S0LwLlC--116" value="id &lt;span class=&quot;hljs-type&quot;&gt;INT&lt;/span&gt; &lt;span class=&quot;hljs-keyword&quot;&gt;PRIMARY&lt;/span&gt; KEY AUTO_INCREMENT,&lt;br/&gt;    visitor_id &lt;span class=&quot;hljs-type&quot;&gt;INT&lt;/span&gt;,&lt;br/&gt;    gym_id &lt;span class=&quot;hljs-type&quot;&gt;INT&lt;/span&gt;,&lt;br/&gt;    &lt;span class=&quot;hljs-keyword&quot;&gt;FOREIGN&lt;/span&gt; KEY (visitor_id) &lt;span class=&quot;hljs-keyword&quot;&gt;REFERENCES&lt;/span&gt; Visitor(visitor_id),&lt;br/&gt;    &lt;span class=&quot;hljs-keyword&quot;&gt;FOREIGN&lt;/span&gt; KEY (gym_id) &lt;span class=&quot;hljs-keyword&quot;&gt;REFERENCES&lt;/span&gt; Gym(gym_id)" style="text;html=1;align=center;verticalAlign=middle;resizable=0;points=[];autosize=1;strokeColor=none;fillColor=none;" vertex="1" parent="5Ww77VYzwX19S0LwLlC--82">
          <mxGeometry y="50" width="350" height="120" as="geometry" />
        </mxCell>
        <mxCell id="5Ww77VYzwX19S0LwLlC--84" value="&lt;span style=&quot;font-size: 12px;&quot;&gt;E3 SportField&lt;/span&gt;" style="swimlane;childLayout=stackLayout;horizontal=1;startSize=50;horizontalStack=0;rounded=1;fontSize=14;fontStyle=0;strokeWidth=2;resizeParent=0;resizeLast=1;shadow=0;dashed=0;align=center;arcSize=4;whiteSpace=wrap;html=1;" vertex="1" parent="1">
          <mxGeometry x="50" y="-560" width="320" height="180" as="geometry" />
        </mxCell>
        <mxCell id="5Ww77VYzwX19S0LwLlC--85" value="&lt;div&gt;&lt;span style=&quot;text-wrap: wrap;&quot;&gt;sportField_id&amp;nbsp;&lt;/span&gt;&lt;span style=&quot;background-color: initial;&quot; class=&quot;hljs-type&quot;&gt;INT&lt;/span&gt;&lt;span style=&quot;background-color: initial;&quot;&gt; &lt;/span&gt;&lt;span style=&quot;background-color: initial;&quot; class=&quot;hljs-keyword&quot;&gt;PRIMARY&lt;/span&gt;&lt;span style=&quot;background-color: initial;&quot;&gt; KEY AUTO_INCREMENT,&lt;/span&gt;&lt;/div&gt;&lt;span style=&quot;text-wrap: wrap;&quot;&gt;name&amp;nbsp;&lt;/span&gt;&lt;span class=&quot;hljs-type&quot;&gt;VARCHAR&lt;/span&gt;(&lt;span class=&quot;hljs-number&quot;&gt;100&lt;/span&gt;) &lt;span class=&quot;hljs-keyword&quot;&gt;NOT&lt;/span&gt; &lt;span class=&quot;hljs-keyword&quot;&gt;NULL&lt;/span&gt;,&amp;nbsp;&lt;div&gt;&lt;span style=&quot;text-wrap: wrap;&quot;&gt;availability&amp;nbsp;&lt;/span&gt;&lt;span style=&quot;background-color: initial;&quot; class=&quot;hljs-type&quot;&gt;BOOLEAN&lt;/span&gt;&lt;span style=&quot;background-color: initial;&quot;&gt;,&lt;/span&gt;&lt;span style=&quot;text-wrap: wrap;&quot;&gt;&lt;br&gt;&lt;/span&gt;&lt;/div&gt;&lt;div&gt;&lt;span style=&quot;text-wrap: wrap;&quot;&gt;duration&amp;nbsp;&lt;/span&gt;&lt;span class=&quot;hljs-type&quot;&gt;TIME&lt;/span&gt;,&lt;div style=&quot;text-wrap: wrap;&quot;&gt;typeField&amp;nbsp;&lt;span style=&quot;background-color: initial; text-wrap: nowrap;&quot; class=&quot;hljs-type&quot;&gt;VARCHAR&lt;/span&gt;&lt;span style=&quot;background-color: initial; text-wrap: nowrap;&quot;&gt;(&lt;/span&gt;&lt;span style=&quot;background-color: initial; text-wrap: nowrap;&quot; class=&quot;hljs-number&quot;&gt;50&lt;/span&gt;&lt;span style=&quot;background-color: initial; text-wrap: nowrap;&quot;&gt;),&lt;/span&gt;&lt;br&gt;&lt;/div&gt;&lt;div style=&quot;text-wrap: wrap;&quot;&gt;reservation&amp;nbsp;&lt;span style=&quot;background-color: initial; text-wrap: nowrap;&quot; class=&quot;hljs-type&quot;&gt;VARCHAR&lt;/span&gt;&lt;span style=&quot;background-color: initial; text-wrap: nowrap;&quot;&gt;(&lt;/span&gt;&lt;span style=&quot;background-color: initial; text-wrap: nowrap;&quot; class=&quot;hljs-number&quot;&gt;100&lt;/span&gt;&lt;span style=&quot;background-color: initial; text-wrap: nowrap;&quot;&gt;),&lt;/span&gt;&lt;br&gt;&lt;/div&gt;&lt;div style=&quot;text-wrap: wrap;&quot;&gt;maximum_capacity&amp;nbsp;&lt;span style=&quot;background-color: initial; text-wrap: nowrap;&quot; class=&quot;hljs-type&quot;&gt;INT&lt;/span&gt;&lt;span style=&quot;background-color: initial; text-wrap: nowrap;&quot;&gt; &lt;/span&gt;&lt;span style=&quot;background-color: initial; text-wrap: nowrap;&quot; class=&quot;hljs-keyword&quot;&gt;CHECK&lt;/span&gt;&lt;span style=&quot;background-color: initial; text-wrap: nowrap;&quot;&gt; (maximum_capacity &lt;/span&gt;&lt;span style=&quot;background-color: initial; text-wrap: nowrap;&quot; class=&quot;hljs-operator&quot;&gt;&amp;gt;&lt;/span&gt;&lt;span style=&quot;background-color: initial; text-wrap: nowrap;&quot;&gt; &lt;/span&gt;&lt;span style=&quot;background-color: initial; text-wrap: nowrap;&quot; class=&quot;hljs-number&quot;&gt;0&lt;/span&gt;&lt;span style=&quot;background-color: initial; text-wrap: nowrap;&quot;&gt;),&lt;/span&gt;&lt;/div&gt;&lt;div style=&quot;text-wrap: wrap;&quot;&gt;&lt;span style=&quot;background-color: initial;&quot;&gt;location VARCHAR(100), NOT NULL&lt;/span&gt;&lt;/div&gt;&lt;/div&gt;" style="align=left;strokeColor=none;fillColor=none;spacingLeft=4;fontSize=12;verticalAlign=top;resizable=0;rotatable=0;part=1;html=1;" vertex="1" parent="5Ww77VYzwX19S0LwLlC--84">
          <mxGeometry y="50" width="320" height="130" as="geometry" />
        </mxCell>
        <mxCell id="5Ww77VYzwX19S0LwLlC--86" value="&lt;span style=&quot;font-size: 12px;&quot;&gt;E25&lt;/span&gt;&lt;div&gt;&lt;span style=&quot;font-size: 12px; background-color: initial;&quot;&gt;Visitor_sportField&lt;/span&gt;&lt;div&gt;&lt;div&gt;&lt;/div&gt;&lt;/div&gt;&lt;/div&gt;" style="swimlane;childLayout=stackLayout;horizontal=1;startSize=50;horizontalStack=0;rounded=1;fontSize=14;fontStyle=0;strokeWidth=2;resizeParent=0;resizeLast=1;shadow=0;dashed=0;align=center;arcSize=4;whiteSpace=wrap;html=1;" vertex="1" parent="1">
          <mxGeometry x="130" y="320" width="390" height="170" as="geometry" />
        </mxCell>
        <mxCell id="5Ww77VYzwX19S0LwLlC--117" value="id &lt;span class=&quot;hljs-type&quot;&gt;INT&lt;/span&gt; &lt;span class=&quot;hljs-keyword&quot;&gt;PRIMARY&lt;/span&gt; KEY AUTO_INCREMENT,&lt;br/&gt;    visitor_id &lt;span class=&quot;hljs-type&quot;&gt;INT&lt;/span&gt;,&lt;br/&gt;    sportField_id &lt;span class=&quot;hljs-type&quot;&gt;INT&lt;/span&gt;,&lt;br/&gt;    &lt;span class=&quot;hljs-keyword&quot;&gt;FOREIGN&lt;/span&gt; KEY (visitor_id) &lt;span class=&quot;hljs-keyword&quot;&gt;REFERENCES&lt;/span&gt; Visitor(visitor_id),&lt;br/&gt;    &lt;span class=&quot;hljs-keyword&quot;&gt;FOREIGN&lt;/span&gt; KEY (sportField_id) &lt;span class=&quot;hljs-keyword&quot;&gt;REFERENCES&lt;/span&gt; SportField(sportField_id)" style="text;html=1;align=center;verticalAlign=middle;resizable=0;points=[];autosize=1;strokeColor=none;fillColor=none;" vertex="1" parent="5Ww77VYzwX19S0LwLlC--86">
          <mxGeometry y="50" width="390" height="120" as="geometry" />
        </mxCell>
        <mxCell id="5Ww77VYzwX19S0LwLlC--88" value="&lt;span style=&quot;font-size: 12px;&quot;&gt;E26&lt;/span&gt;&lt;div&gt;&lt;span style=&quot;font-size: 12px; background-color: initial;&quot;&gt;Visitor_CommunityRoom&lt;/span&gt;&lt;div&gt;&lt;div&gt;&lt;/div&gt;&lt;/div&gt;&lt;/div&gt;" style="swimlane;childLayout=stackLayout;horizontal=1;startSize=50;horizontalStack=0;rounded=1;fontSize=14;fontStyle=0;strokeWidth=2;resizeParent=0;resizeLast=1;shadow=0;dashed=0;align=center;arcSize=4;whiteSpace=wrap;html=1;" vertex="1" parent="1">
          <mxGeometry x="530" y="320" width="500" height="170" as="geometry" />
        </mxCell>
        <mxCell id="5Ww77VYzwX19S0LwLlC--118" value="&lt;div&gt;id &lt;span class=&quot;hljs-type&quot;&gt;INT&lt;/span&gt; &lt;span class=&quot;hljs-keyword&quot;&gt;PRIMARY&lt;/span&gt; KEY AUTO_INCREMENT,&lt;br/&gt;    visitor_id &lt;span class=&quot;hljs-type&quot;&gt;INT&lt;/span&gt;,&lt;br/&gt;    communityRoom_id &lt;span class=&quot;hljs-type&quot;&gt;INT&lt;/span&gt;,&lt;br/&gt;    &lt;span class=&quot;hljs-keyword&quot;&gt;FOREIGN&lt;/span&gt; KEY (visitor_id) &lt;span class=&quot;hljs-keyword&quot;&gt;REFERENCES&lt;/span&gt; Visitor(visitor_id),&lt;br/&gt;    &lt;span class=&quot;hljs-keyword&quot;&gt;FOREIGN&lt;/span&gt; KEY (communityRoom_id) &lt;span class=&quot;hljs-keyword&quot;&gt;REFERENCES&lt;/span&gt; CommunityRoom(communityRoom_id)&lt;br style=&quot;text-align: left;&quot;&gt;&lt;/div&gt;" style="text;html=1;align=center;verticalAlign=middle;resizable=0;points=[];autosize=1;strokeColor=none;fillColor=none;" vertex="1" parent="5Ww77VYzwX19S0LwLlC--88">
          <mxGeometry y="50" width="500" height="120" as="geometry" />
        </mxCell>
        <mxCell id="5Ww77VYzwX19S0LwLlC--90" value="&lt;span style=&quot;font-size: 12px;&quot;&gt;E27&lt;/span&gt;&lt;div&gt;&lt;span style=&quot;font-size: 12px; background-color: initial;&quot;&gt;propertyManager_event&lt;/span&gt;&lt;div&gt;&lt;div&gt;&lt;/div&gt;&lt;/div&gt;&lt;/div&gt;" style="swimlane;childLayout=stackLayout;horizontal=1;startSize=50;horizontalStack=0;rounded=1;fontSize=14;fontStyle=0;strokeWidth=2;resizeParent=0;resizeLast=1;shadow=0;dashed=0;align=center;arcSize=4;whiteSpace=wrap;html=1;" vertex="1" parent="1">
          <mxGeometry x="1040" y="320" width="510" height="170" as="geometry" />
        </mxCell>
        <mxCell id="5Ww77VYzwX19S0LwLlC--91" value="id &lt;span class=&quot;hljs-type&quot;&gt;INT&lt;/span&gt; &lt;span class=&quot;hljs-keyword&quot;&gt;PRIMARY&lt;/span&gt; KEY AUTO_INCREMENT,&lt;br/&gt;    propertyManager_id &lt;span class=&quot;hljs-type&quot;&gt;INT&lt;/span&gt;,&lt;br/&gt;    event_id &lt;span class=&quot;hljs-type&quot;&gt;INT&lt;/span&gt;,&lt;br/&gt;    &lt;span class=&quot;hljs-keyword&quot;&gt;FOREIGN&lt;/span&gt; KEY (propertyManager_id) &lt;span class=&quot;hljs-keyword&quot;&gt;REFERENCES&lt;/span&gt; PropertyManager(propertyManager_id),&lt;br/&gt;    &lt;span class=&quot;hljs-keyword&quot;&gt;FOREIGN&lt;/span&gt; KEY (event_id) &lt;span class=&quot;hljs-keyword&quot;&gt;REFERENCES&lt;/span&gt; Event(event_id)" style="align=left;strokeColor=none;fillColor=none;spacingLeft=4;fontSize=12;verticalAlign=top;resizable=0;rotatable=0;part=1;html=1;" vertex="1" parent="5Ww77VYzwX19S0LwLlC--90">
          <mxGeometry y="50" width="510" height="120" as="geometry" />
        </mxCell>
        <mxCell id="5Ww77VYzwX19S0LwLlC--93" value="&lt;span style=&quot;font-size: 12px;&quot;&gt;E6&lt;/span&gt;&lt;div&gt;&lt;span style=&quot;font-size: 12px;&quot;&gt;UtilityBills&lt;/span&gt;&lt;/div&gt;" style="swimlane;childLayout=stackLayout;horizontal=1;startSize=50;horizontalStack=0;rounded=1;fontSize=14;fontStyle=0;strokeWidth=2;resizeParent=0;resizeLast=1;shadow=0;dashed=0;align=center;arcSize=4;whiteSpace=wrap;html=1;" vertex="1" parent="1">
          <mxGeometry x="1070" y="-560" width="220" height="180" as="geometry" />
        </mxCell>
        <mxCell id="5Ww77VYzwX19S0LwLlC--94" value="&lt;span style=&quot;text-wrap: wrap;&quot;&gt;name&amp;nbsp;&lt;/span&gt;&lt;span class=&quot;hljs-type&quot;&gt;VARCHAR&lt;/span&gt;(&lt;span class=&quot;hljs-number&quot;&gt;100&lt;/span&gt;) &lt;span class=&quot;hljs-keyword&quot;&gt;NOT&lt;/span&gt; &lt;span class=&quot;hljs-keyword&quot;&gt;NULL&lt;/span&gt;,&lt;div&gt;&lt;span style=&quot;text-wrap: wrap;&quot;&gt;type&amp;nbsp;&lt;/span&gt;&lt;span style=&quot;background-color: initial;&quot; class=&quot;hljs-type&quot;&gt;VARCHAR&lt;/span&gt;&lt;span style=&quot;background-color: initial;&quot;&gt;(&lt;/span&gt;&lt;span style=&quot;background-color: initial;&quot; class=&quot;hljs-number&quot;&gt;50&lt;/span&gt;&lt;span style=&quot;background-color: initial;&quot;&gt;) DEFAULT &quot;water&quot;,&lt;/span&gt;&lt;span style=&quot;text-wrap: wrap;&quot;&gt;&lt;br&gt;&lt;/span&gt;&lt;/div&gt;&lt;div&gt;&lt;span style=&quot;text-wrap: wrap;&quot;&gt;date&amp;nbsp;&lt;/span&gt;&lt;span class=&quot;hljs-type&quot;&gt;DATE&lt;/span&gt;,&lt;div style=&quot;text-wrap: wrap;&quot;&gt;price&amp;nbsp;&lt;span style=&quot;background-color: initial; text-wrap: nowrap;&quot; class=&quot;hljs-type&quot;&gt;INT&lt;/span&gt;&lt;span style=&quot;background-color: initial; text-wrap: nowrap;&quot;&gt; &lt;/span&gt;&lt;span style=&quot;background-color: initial; text-wrap: nowrap;&quot; class=&quot;hljs-keyword&quot;&gt;CHECK&lt;/span&gt;&lt;span style=&quot;background-color: initial; text-wrap: nowrap;&quot;&gt; (price &lt;/span&gt;&lt;span style=&quot;background-color: initial; text-wrap: nowrap;&quot; class=&quot;hljs-operator&quot;&gt;&amp;gt;&lt;/span&gt;&lt;span style=&quot;background-color: initial; text-wrap: nowrap;&quot;&gt; &lt;/span&gt;&lt;span style=&quot;background-color: initial; text-wrap: nowrap;&quot; class=&quot;hljs-number&quot;&gt;0&lt;/span&gt;&lt;span style=&quot;background-color: initial; text-wrap: nowrap;&quot;&gt;)&lt;/span&gt;&lt;/div&gt;&lt;/div&gt;" style="align=left;strokeColor=none;fillColor=none;spacingLeft=4;fontSize=12;verticalAlign=top;resizable=0;rotatable=0;part=1;html=1;" vertex="1" parent="5Ww77VYzwX19S0LwLlC--93">
          <mxGeometry y="50" width="220" height="130" as="geometry" />
        </mxCell>
        <mxCell id="5Ww77VYzwX19S0LwLlC--114" value="&lt;span style=&quot;font-size: 12px;&quot;&gt;E4&lt;/span&gt;&lt;div&gt;&lt;span style=&quot;font-size: 12px;&quot;&gt;CommuntyRoom&lt;/span&gt;&lt;/div&gt;" style="swimlane;childLayout=stackLayout;horizontal=1;startSize=50;horizontalStack=0;rounded=1;fontSize=14;fontStyle=0;strokeWidth=2;resizeParent=0;resizeLast=1;shadow=0;dashed=0;align=center;arcSize=4;whiteSpace=wrap;html=1;" vertex="1" parent="1">
          <mxGeometry x="380" y="-560" width="360" height="180" as="geometry" />
        </mxCell>
        <mxCell id="5Ww77VYzwX19S0LwLlC--115" value="&lt;div&gt;&lt;span style=&quot;text-wrap: wrap;&quot;&gt;communityRoom_id&amp;nbsp;&lt;/span&gt;&lt;span style=&quot;background-color: initial;&quot; class=&quot;hljs-type&quot;&gt;INT&lt;/span&gt;&lt;span style=&quot;background-color: initial;&quot;&gt; &lt;/span&gt;&lt;span style=&quot;background-color: initial;&quot; class=&quot;hljs-keyword&quot;&gt;PRIMARY&lt;/span&gt;&lt;span style=&quot;background-color: initial;&quot;&gt; KEY AUTO_INCREMENT,&lt;/span&gt;&lt;/div&gt;&lt;span style=&quot;text-wrap: wrap;&quot;&gt;name&amp;nbsp;&lt;/span&gt;&lt;span class=&quot;hljs-type&quot;&gt;VARCHAR&lt;/span&gt;(&lt;span class=&quot;hljs-number&quot;&gt;100&lt;/span&gt;) &lt;span class=&quot;hljs-keyword&quot;&gt;NOT&lt;/span&gt; &lt;span class=&quot;hljs-keyword&quot;&gt;NULL&lt;/span&gt;,&lt;div&gt;&lt;span style=&quot;text-wrap: wrap;&quot;&gt;availability&amp;nbsp;&lt;/span&gt;&lt;span style=&quot;background-color: initial;&quot; class=&quot;hljs-type&quot;&gt;BOOLEAN&lt;/span&gt;&lt;span style=&quot;background-color: initial;&quot;&gt;,&lt;/span&gt;&lt;span style=&quot;text-wrap: wrap;&quot;&gt;&lt;br&gt;&lt;/span&gt;&lt;/div&gt;&lt;div&gt;&lt;span style=&quot;text-wrap: wrap;&quot;&gt;duration&amp;nbsp;&lt;/span&gt;&lt;span class=&quot;hljs-type&quot;&gt;TIME&lt;/span&gt;,&lt;div style=&quot;text-wrap: wrap;&quot;&gt;typeField&amp;nbsp;&lt;span style=&quot;background-color: initial; text-wrap: nowrap;&quot; class=&quot;hljs-type&quot;&gt;VARCHAR&lt;/span&gt;&lt;span style=&quot;background-color: initial; text-wrap: nowrap;&quot;&gt;(&lt;/span&gt;&lt;span style=&quot;background-color: initial; text-wrap: nowrap;&quot; class=&quot;hljs-number&quot;&gt;50&lt;/span&gt;&lt;span style=&quot;background-color: initial; text-wrap: nowrap;&quot;&gt;),&lt;/span&gt;&lt;br&gt;&lt;/div&gt;&lt;div style=&quot;text-wrap: wrap;&quot;&gt;reservation&amp;nbsp;&lt;span style=&quot;background-color: initial; text-wrap: nowrap;&quot; class=&quot;hljs-type&quot;&gt;VARCHAR&lt;/span&gt;&lt;span style=&quot;background-color: initial; text-wrap: nowrap;&quot;&gt;(&lt;/span&gt;&lt;span style=&quot;background-color: initial; text-wrap: nowrap;&quot; class=&quot;hljs-number&quot;&gt;100&lt;/span&gt;&lt;span style=&quot;background-color: initial; text-wrap: nowrap;&quot;&gt;),&lt;/span&gt;&lt;br&gt;&lt;/div&gt;&lt;div style=&quot;text-wrap: wrap;&quot;&gt;maximum_capacity&amp;nbsp;&lt;span style=&quot;background-color: initial; text-wrap: nowrap;&quot; class=&quot;hljs-type&quot;&gt;NT&lt;/span&gt;&lt;span style=&quot;background-color: initial; text-wrap: nowrap;&quot;&gt; &lt;/span&gt;&lt;span style=&quot;background-color: initial; text-wrap: nowrap;&quot; class=&quot;hljs-keyword&quot;&gt;CHECK&lt;/span&gt;&lt;span style=&quot;background-color: initial; text-wrap: nowrap;&quot;&gt; (maximum_capacity &lt;/span&gt;&lt;span style=&quot;background-color: initial; text-wrap: nowrap;&quot; class=&quot;hljs-operator&quot;&gt;&amp;gt;&lt;/span&gt;&lt;span style=&quot;background-color: initial; text-wrap: nowrap;&quot;&gt; &lt;/span&gt;&lt;span style=&quot;background-color: initial; text-wrap: nowrap;&quot; class=&quot;hljs-number&quot;&gt;0&lt;/span&gt;&lt;span style=&quot;background-color: initial; text-wrap: nowrap;&quot;&gt;),&lt;/span&gt;&lt;br&gt;&lt;/div&gt;&lt;div style=&quot;text-wrap: wrap;&quot;&gt;location VARCHAR(100), NOT NULL&lt;br&gt;&lt;/div&gt;&lt;/div&gt;" style="align=left;strokeColor=none;fillColor=none;spacingLeft=4;fontSize=12;verticalAlign=top;resizable=0;rotatable=0;part=1;html=1;" vertex="1" parent="5Ww77VYzwX19S0LwLlC--114">
          <mxGeometry y="50" width="360" height="130" as="geometry" />
        </mxCell>
      </root>
    </mxGraphModel>
  </diagram>
</mxfile>
